<?xml version="1.0" encoding="utf-8"?>
<!-- Generator: Adobe Illustrator 25.0.0, SVG Export Plug-In . SVG Version: 6.00 Build 0)  -->
<svg version="1.1" id="katman_1" xmlns="http://www.w3.org/2000/svg" xmlns:xlink="http://www.w3.org/1999/xlink" x="0px" y="0px"
	 viewBox="0 0 512 512" style="enable-background:new 0 0 512 512;" xml:space="preserve">
<style type="text/css">
	.st0{fill:#53628C;}
</style>
<path class="st0" d="M64,32C28.7,32,0,60.7,0,96v64c0,35.3,28.7,64,64,64h384c35.3,0,64-28.7,64-64V96c0-35.3-28.7-64-64-64H64z
	 M344,104c13.3,0,24,10.7,24,24s-10.7,24-24,24s-24-10.7-24-24S330.7,104,344,104z M392,128c0-13.3,10.7-24,24-24s24,10.7,24,24
	s-10.7,24-24,24S392,141.3,392,128z M64,288c-35.3,0-64,28.7-64,64v64c0,35.3,28.7,64,64,64h384c35.3,0,64-28.7,64-64v-64
	c0-35.3-28.7-64-64-64H64z M344,360c13.3,0,24,10.7,24,24s-10.7,24-24,24s-24-10.7-24-24S330.7,360,344,360z M400,384
	c0-13.3,10.7-24,24-24s24,10.7,24,24s-10.7,24-24,24S400,397.3,400,384z"/>
</svg>
