<?xml version="1.0" encoding="utf-8"?>
<!-- Generator: Adobe Illustrator 25.0.0, SVG Export Plug-In . SVG Version: 6.00 Build 0)  -->
<svg version="1.1" id="katman_1" xmlns="http://www.w3.org/2000/svg" xmlns:xlink="http://www.w3.org/1999/xlink" x="0px" y="0px"
	 viewBox="0 0 448 512" style="enable-background:new 0 0 448 512;" xml:space="preserve">
<style type="text/css">
	.st0{fill:#09479D;}
</style>
<path class="st0" d="M160,64c0-8.8,7.2-16,16-16s16,7.2,16,16v136c0,10.3,6.6,19.5,16.4,22.8s20.6-0.1,26.8-8.3
	c3-3.9,7.6-6.4,12.8-6.4c8.8,0,16,7.2,16,16v8c0,10.3,6.6,19.5,16.4,22.8s20.6-0.1,26.8-8.3c3-3.9,7.6-6.4,12.8-6.4
	c8.8,0,16,7.2,16,16c0,9.1,5.1,17.4,13.3,21.5s17.9,3.2,25.1-2.3c2.7-2,6-3.2,9.6-3.2c8.8,0,16,7.2,16,16v96v8c0,39.8-32.2,72-72,72
	h-56h-59.7h-0.9c-37.4,0-72.4-18.7-93.2-49.9L50.7,312.9c-4.9-7.4-2.9-17.3,4.4-22.2s17.3-2.9,22.2,4.4l38.7,58.1
	c5.9,8.8,16.8,12.7,26.9,9.7s17-12.4,17-23V320V64H160z M176,0c-35.3,0-64,28.7-64,64v197.7c-20.8-23.7-56.5-28.9-83.5-11
	c-29.4,19.7-37.4,59.4-17.7,88.8l67.5,101.3C108,485.3,157.9,512,211.4,512h0.9H272h56c66.3,0,120-53.7,120-120v-8v-96
	c0-35.3-28.7-64-64-64c-2.8,0-5.6,0.2-8.3,0.5c-11-19.4-31.8-32.5-55.7-32.5c-5.4,0-10.5,0.7-15.5,1.9c-10.8-20.2-32-33.9-56.5-33.9
	c-2.7,0-5.4,0.2-8,0.5V64C240,28.7,211.3,0,176,0z M224,304c0-8.8-7.2-16-16-16s-16,7.2-16,16v96c0,8.8,7.2,16,16,16s16-7.2,16-16
	V304z M272,288c-8.8,0-16,7.2-16,16v96c0,8.8,7.2,16,16,16s16-7.2,16-16v-96C288,295.2,280.8,288,272,288z M352,304
	c0-8.8-7.2-16-16-16s-16,7.2-16,16v96c0,8.8,7.2,16,16,16s16-7.2,16-16V304z"/>
</svg>
