<?xml version="1.0" encoding="utf-8"?>
<!-- Generator: Adobe Illustrator 25.0.0, SVG Export Plug-In . SVG Version: 6.00 Build 0)  -->
<svg version="1.1" id="katman_1" xmlns="http://www.w3.org/2000/svg" xmlns:xlink="http://www.w3.org/1999/xlink" x="0px" y="0px"
	 viewBox="0 0 384 512" style="enable-background:new 0 0 384 512;" xml:space="preserve">
<style type="text/css">
	.st0{fill:#FF8080;}
</style>
<path class="st0" d="M214.6,470.6c-12.5,12.5-32.8,12.5-45.3,0l-160-160c-12.5-12.5-12.5-32.8,0-45.3s32.8-12.5,45.3,0L192,402.7
	l137.4-137.3c12.5-12.5,32.8-12.5,45.3,0s12.5,32.8,0,45.3L214.6,470.6L214.6,470.6z M374.6,118.6l-160,160
	c-12.5,12.5-32.8,12.5-45.3,0l-160-160c-12.5-12.5-12.5-32.8,0-45.3s32.8-12.5,45.3,0L192,210.7L329.4,73.4
	c12.5-12.5,32.8-12.5,45.3,0S387.2,106.2,374.6,118.6L374.6,118.6z"/>
</svg>
