<svg xmlns="http://www.w3.org/2000/svg" viewBox="0 0 1228.1 109.01"><defs><style>.cls-1{fill:#353535;}</style></defs><g id="katman_2" data-name="katman 2"><g id="katman_1-2" data-name="katman 1"><path class="cls-1" d="M299.7,54.51V0h18.08v54.5c0,19.19-15.37,31.5-32.72,31.5s-33-12.31-33-31.5V0h18.33v54.5a14.64,14.64,0,0,0,29.28,0Z"/><path class="cls-1" d="M400.42,0V85.83H382V51.32H351.46V85.83H333.28V0h18.18V35H382V0Z"/><path class="cls-1" d="M443,65.53l-7.6,20.3H415.91L447.8,0h19.81l31.77,85.83H480.19l-7.6-20.3Zm23.79-15.82-9.09-29.9-8.72,29.9Z"/><path class="cls-1" d="M592.1,0h15.33l10.46,85.83H599.58l-6-51.45L573.54,76H559.47L539.29,34.38l-6.11,51.45H514.87L525.46,0h15.07l25.91,55.31Z"/><path class="cls-1" d="M710.62,0h15.32l10.47,85.83H718.09l-6-51.45L692.06,76H678L657.8,34.38l-6.1,51.45H633.38L644,0h15.08L685,55.31Z"/><path class="cls-1" d="M751.9,0h54.31V16.07H770.09V35.63h31.64V51.45H770.09V69.76h37.24V85.83H751.9Z"/><path class="cls-1" d="M822.83,0H887.6V16.44H864.43V85.83H846V16.44H822.83Z"/><path class="cls-1" d="M211.63,1.37h14.83l10.13,83.09H218.86l-5.79-49.81L193.66,74.94H180L160.49,34.65l-5.91,49.81H136.85L147.1,1.37h14.6l25.08,53.55Z"/><path class="cls-1" d="M918.65,85.83H913V0h5.61V43.23L953.65,0h6.85L924.38,44.47l42.35,41.36H959L918.65,46.47Z"/><path class="cls-1" d="M987.78,0V85.83h-5.61V0Z"/><path class="cls-1" d="M1003.21,0h5.61V80.22h37.62v5.61h-43.23Z"/><path class="cls-1" d="M1067.49,0V85.83h-5.61V0Z"/><path class="cls-1" d="M1142.47,0V85.83h-6.1L1088.53,9.09V85.83h-5.61V0h6.36l47.59,76.74V0Z"/><path class="cls-1" d="M1185.62,96.65a8,8,0,0,0,.73,3.53,6.58,6.58,0,0,0,8.52,3.41,6.36,6.36,0,0,0,4.14-5.84,7.26,7.26,0,0,0-.73-2.92l-3.53-9.13c-20.93-2.31-36-20.57-36-42.6,0-23.74,17.65-43.09,41-43.09a41.06,41.06,0,0,1,28.36,11.32l-3.77,3.89a35.78,35.78,0,0,0-24.59-9.74c-20.45,0-35.54,16.68-35.54,37.62s15.09,37.49,35.54,37.49a34.68,34.68,0,0,0,24.59-9.74l3.77,3.89A40.11,40.11,0,0,1,1200,86.06l2.8,6.82c2.55,6.09.12,12.9-6.09,15.22-5.84,2.43-12.17-.13-15-6.33a16.41,16.41,0,0,1-1-5.12Z"/><rect class="cls-1" y="0.21" width="17.33" height="85.79" rx="8.67"/><rect class="cls-1" x="35.97" y="0.17" width="17.33" height="85.79" rx="8.67"/><rect class="cls-1" x="71.95" y="0.01" width="17.33" height="85.79" rx="8.67"/><circle class="cls-1" cx="8.67" cy="77.34" r="8.67"/><circle class="cls-1" cx="44.64" cy="77.34" r="8.67"/><circle class="cls-1" cx="80.61" cy="77.13" r="8.67"/><circle class="cls-1" cx="8.67" cy="8.81" r="8.67"/><circle class="cls-1" cx="44.64" cy="8.81" r="8.67"/><circle class="cls-1" cx="80.61" cy="8.81" r="8.67"/></g></g></svg>